<?xml version="1.0" encoding="UTF-8" standalone="no"?>
<!-- Created with Inkscape (http://www.inkscape.org/) -->

<svg
   width="162"
   height="32"
   viewBox="0 0 42.862499 8.4666666"
   version="1.1"
   id="svg1"
   inkscape:version="1.3 (0e150ed6c4, 2023-07-21)"
   sodipodi:docname="launch_in_binder.svg"
   xmlns:inkscape="http://www.inkscape.org/namespaces/inkscape"
   xmlns:sodipodi="http://sodipodi.sourceforge.net/DTD/sodipodi-0.dtd"
   xmlns="http://www.w3.org/2000/svg"
   xmlns:svg="http://www.w3.org/2000/svg">
  <sodipodi:namedview
     id="namedview1"
     pagecolor="#ffffff"
     bordercolor="#000000"
     borderopacity="0.25"
     inkscape:showpageshadow="2"
     inkscape:pageopacity="0.0"
     inkscape:pagecheckerboard="0"
     inkscape:deskcolor="#d1d1d1"
     inkscape:document-units="mm"
     inkscape:zoom="6.35"
     inkscape:cx="82.992126"
     inkscape:cy="11.259843"
     inkscape:window-width="1920"
     inkscape:window-height="1129"
     inkscape:window-x="-8"
     inkscape:window-y="-8"
     inkscape:window-maximized="1"
     inkscape:current-layer="layer1" />
  <defs
     id="defs1" />
  <g
     inkscape:label="Layer 1"
     inkscape:groupmode="layer"
     id="layer1">
    <rect
       style="fill:#ffffff;fill-opacity:1;fill-rule:evenodd;stroke:#0054ae;stroke-width:0.283116;stroke-opacity:1;-inkscape-stroke:none"
       id="rect1"
       width="42.579384"
       height="8.1835499"
       x="0.1415585"
       y="0.1415585" />
    <g
       id="g2"
       transform="matrix(0.85936634,0,0,0.84441601,17.181044,7.0277693)"
       style="stroke-width:1.1739">
      <path
         fill="#f5a252"
         d="m -11.834042,-3.311996 q -0.05475,-0.043137 -0.08528,-0.064041 -0.22597,-0.1544072 -0.494412,-0.2082727 -8.85e-4,-0.00442 6.63e-4,-0.00509 c 0.372413,-0.1339449 0.594733,-0.5154279 0.511778,-0.9083034 -0.06482,-0.3071552 -0.312243,-0.5467296 -0.6215,-0.6088906 q -0.07267,-0.0146 -0.15319,-0.014379 -0.09656,3.302e-4 -0.153854,0.014047 -0.431256,0.1033067 -0.588982,0.5177506 -0.0046,0.014047 -0.0097,0.031523 -0.07864,0.2693277 0.02809,0.5273734 0.0018,0.0042 0.0084,0.00841 -0.0013,0.00465 3.3e-4,0.0083 0.127419,0.2824898 0.414223,0.4070331 l 0.01316,0.030196 q -0.217562,0.049663 -0.407695,0.1675694 -0.07178,0.044574 -0.137816,0.098882 c -0.226965,-0.1869256 -0.389779,-0.4449713 -0.454484,-0.7313325 q -0.0594,-0.2762958 -0.0072,-0.551375 c 0.11127,-0.5518175 0.544628,-0.9621689 1.096888,-1.0506544 q 0.112487,-0.018029 0.215794,-0.015817 0.407033,0.00874 0.733434,0.231832 0.303726,0.207609 0.454373,0.5420841 0.189469,0.4207484 0.08141,0.8671576 c -0.06559,0.2710973 -0.221766,0.5291431 -0.444418,0.7060034 z"
         id="path11"
         style="stroke-width:0.310592" />
      <path
         fill="#e66581"
         d="m -13.971519,-4.5926019 q -0.05221,0.2750792 0.0072,0.551375 c -0.298196,0.1099432 -0.509344,0.3787179 -0.525935,0.6975974 -0.01825,0.3508449 0.190022,0.6702774 0.523834,0.7890692 q 0.259815,0.091029 0.521179,0.00144 0.02146,-0.00741 0.03761,-0.013605 0.31335,-0.1316222 0.439441,-0.445082 c 0.0022,-0.00332 0.0059,-0.00697 0.01018,-0.00863 q 0.277734,-0.1070675 0.549606,-0.00653 -0.09866,0.4457456 -0.42639,0.7276825 -0.249971,0.2150196 -0.571173,0.2928869 -0.0069,0.00166 -0.0053,0.00277 -0.01228,-6.639e-4 -0.02267,0.00144 -0.253843,0.051985 -0.508791,0.00542 -0.007,-0.00133 -0.02124,2.216e-4 -9.95e-4,-0.00376 -0.0044,-0.00454 -0.525604,-0.1153629 -0.826676,-0.5513751 c -0.358255,-0.5188567 -0.288684,-1.2255238 0.148435,-1.6721542 q 0.275079,-0.281052 0.675144,-0.3679889 z"
         id="path12"
         style="stroke-width:0.310592" />
      <path
         fill="#e66581"
         d="m -13.418817,-4.5891731 c 0.507243,0.1180175 0.886625,0.4941913 1.005748,0.9997752 q -0.0015,6.636e-4 -6.63e-4,0.00509 -0.275411,-0.053313 -0.550601,0.00796 l -0.01316,-0.030196 q -0.127972,-0.2871353 -0.414554,-0.4153287 -0.0066,-0.0042 -0.0084,-0.00841 -0.106736,-0.2580457 -0.02809,-0.5273734 0.0051,-0.017476 0.0097,-0.031523 z"
         id="path13"
         style="stroke-width:0.310592" />
      <path
         fill="#579aca"
         d="m -12.413732,-3.58431 q 0.268442,0.053865 0.494412,0.2082727 0.03053,0.020905 0.08528,0.064041 0.03407,0.029643 0.06824,0.061719 0.143568,0.1342766 0.239022,0.2991915 0.0034,0.00597 0.0042,0.01283 a 0.02776232,0.02787292 26.8 0 0 0.0033,0.010176 c 0.252294,0.4518289 0.217785,0.9982267 -0.07975,1.4186433 -0.232827,0.3289447 -0.615084,0.53212948 -1.016919,0.54894173 -0.643732,0.0268774 -1.207937,-0.40813923 -1.348076,-1.03605423 q 0.01427,-0.00155 0.02124,-2.216e-4 0.254948,0.046565 0.508791,-0.00542 0.0104,-0.0021 0.02267,-0.00144 0.105077,0.2631336 0.338236,0.401171 c 0.37916,0.2245319 0.855544,0.092578 1.077643,-0.2756322 0.140028,-0.2321638 0.145779,-0.5230598 0.0261,-0.7596478 q -0.137042,-0.2712075 -0.439109,-0.389225 -0.271872,-0.1005415 -0.549606,0.00653 c -0.0043,0.00166 -0.008,0.00531 -0.01018,0.00863 q -0.310694,0.1317327 -0.439441,0.4450819 -0.01615,0.00619 -0.03761,0.013605 -0.261364,0.089592 -0.521179,-0.00144 0.04911,-0.2299516 0.177634,-0.4359016 0.116248,-0.1863725 0.278951,-0.3194325 0.06603,-0.054308 0.137816,-0.098883 0.190133,-0.1179069 0.407697,-0.1675694 0.275189,-0.061276 0.550601,-0.00796 z"
         id="path14"
         style="stroke-width:0.310592" />
    </g>
    <path
       d="M 9.2700003,5.2389439 V 2.446 h 0.3431331 v 2.4857201 h 1.6119276 v 0.3072238 z m 3.9260867,0 H 12.880883 V 4.9237402 q -0.115708,0.1675767 -0.315204,0.2633347 -0.195506,0.091768 -0.422931,0.091768 -0.319194,0 -0.51869,-0.1595968 -0.199496,-0.1635867 -0.199496,-0.4269214 0,-0.2912642 0.223436,-0.4388912 0.223435,-0.151617 0.662326,-0.151617 h 0.566569 q -0.004,-0.2713145 -0.143637,-0.4189416 -0.135657,-0.147627 -0.391012,-0.147627 -0.151617,0 -0.299244,0.063839 -0.147627,0.063839 -0.291264,0.1955061 L 11.580169,3.5791372 q 0.167577,-0.1595968 0.367073,-0.2393952 0.199496,-0.083788 0.426921,-0.083788 0.387022,0 0.602478,0.2314154 0.219446,0.2274254 0.219446,0.6304073 z M 12.876893,4.3531817 h -0.562579 q -0.291264,0 -0.430911,0.079798 -0.139647,0.079798 -0.139647,0.2513649 0,0.1436371 0.119697,0.2393952 0.123688,0.095758 0.315204,0.095758 0.287274,0 0.48278,-0.1835363 0.199496,-0.1875262 0.215456,-0.4827798 z M 15.39852,5.2389439 H 15.075336 V 4.9436898 q -0.115707,0.1675767 -0.291264,0.2553549 -0.175556,0.083788 -0.398992,0.083788 -0.379042,0 -0.598488,-0.247375 Q 13.571137,4.7880829 13.571137,4.3611615 V 3.3118126 h 0.327173 v 1.0293993 q 0,0.3032339 0.147627,0.4787904 0.151617,0.1755565 0.418942,0.1755565 0.271314,0 0.438891,-0.1875263 0.167576,-0.1875262 0.167576,-0.4867702 V 3.3118126 h 0.327174 z m 0.418938,-1.9271313 h 0.319194 v 0.299244 q 0.115707,-0.1675767 0.291264,-0.2553549 0.179546,-0.091768 0.398992,-0.091768 0.383032,0 0.598488,0.2473751 0.215456,0.247375 0.215456,0.6782864 V 5.2389439 H 17.317668 V 4.2095446 q 0,-0.303234 -0.151617,-0.4787904 -0.147627,-0.1755565 -0.414952,-0.1755565 -0.275304,0 -0.442881,0.1875262 -0.167576,0.1875263 -0.167576,0.4867703 v 1.0094497 h -0.323184 z m 3.132084,1.9869801 q -0.442881,0 -0.722175,-0.2792944 -0.275305,-0.2832843 -0.275305,-0.7381352 0,-0.4309113 0.291265,-0.7261654 0.291264,-0.2952541 0.714195,-0.2952541 0.307224,0 0.52268,0.1436371 0.219445,0.1396472 0.331163,0.4069719 l -0.275304,0.1316673 q -0.09177,-0.199496 -0.239395,-0.299244 -0.143638,-0.099748 -0.343134,-0.099748 -0.283284,0 -0.47879,0.2154557 -0.191516,0.2114658 -0.191516,0.5226795 0,0.3152037 0.191516,0.5266694 0.195506,0.2074759 0.48677,0.2074759 0.187526,0 0.347123,-0.099748 0.163587,-0.1037379 0.263335,-0.2872742 l 0.251365,0.1356572 q -0.115708,0.2473751 -0.347123,0.3910122 -0.231415,0.1436371 -0.52667,0.1436371 z M 20.146518,2.446 h 0.323183 v 1.1570767 q 0.115708,-0.1635867 0.287275,-0.2513649 0.175556,-0.087778 0.391012,-0.087778 0.387022,0 0.602478,0.2473751 0.219445,0.247375 0.219445,0.6782864 V 5.2389439 H 21.646728 V 4.2095446 q 0,-0.3072239 -0.151617,-0.4787904 -0.151617,-0.1755565 -0.422932,-0.1755565 -0.271314,0 -0.438891,0.1875262 -0.163587,0.1875263 -0.163587,0.4867703 v 1.0094497 h -0.323183 z m 2.980465,0.2194456 h 0.359093 v 0.3551028 h -0.359093 z m 0.01596,2.5734983 V 3.3118126 h 0.327173 v 1.9271313 z m 0.786011,-1.9271313 h 0.319194 v 0.299244 q 0.115707,-0.1675767 0.291264,-0.2553549 0.179546,-0.091768 0.398992,-0.091768 0.383032,0 0.598488,0.2473751 0.215456,0.247375 0.215456,0.6782864 V 5.2389439 H 25.429164 V 4.2095446 q 0,-0.303234 -0.151617,-0.4787904 -0.147627,-0.1755565 -0.414952,-0.1755565 -0.275304,0 -0.442881,0.1875262 -0.167576,0.1875263 -0.167576,0.4867703 v 1.0094497 h -0.323184 z m 3.008395,1.9271313 V 2.446 h 1.208946 q 0.466821,0 0.722175,0.1915161 0.255355,0.1915162 0.255355,0.5426291 0,0.2234355 -0.115707,0.3870223 -0.115708,0.1595968 -0.347123,0.247375 0.259344,0.067829 0.387022,0.2354053 0.131667,0.1635867 0.131667,0.4229315 0,0.3431331 -0.267324,0.5545988 -0.267325,0.2114658 -0.706216,0.2114658 z m 1.843343,-2.042839 q 0,-0.2194456 -0.163587,-0.3311633 -0.163586,-0.1157077 -0.47879,-0.1157077 h -0.853843 v 0.9296513 h 0.905712 q 0.259345,0 0.422932,-0.1356573 0.167576,-0.1356572 0.167576,-0.347123 z m 0.05586,1.2727845 q 0,-0.2234356 -0.151617,-0.3551029 -0.151617,-0.1316674 -0.410962,-0.1316674 h -0.9895 V 4.93571 h 0.945611 q 0.275305,0 0.438891,-0.1276775 0.167577,-0.1276774 0.167577,-0.3391431 z m 0.718186,-1.8034438 h 0.359093 v 0.3551028 h -0.359093 z m 0.01596,2.5734983 V 3.3118126 h 0.327174 V 5.2389439 Z M 30.35671,3.3118126 h 0.319193 v 0.299244 q 0.115708,-0.1675767 0.291264,-0.2553549 0.179547,-0.091768 0.398992,-0.091768 0.383033,0 0.598488,0.2473751 0.215456,0.247375 0.215456,0.6782864 V 5.2389439 H 31.856917 V 4.2095446 q 0,-0.303234 -0.151616,-0.4787904 -0.147628,-0.1755565 -0.414952,-0.1755565 -0.275305,0 -0.442881,0.1875262 -0.167577,0.1875263 -0.167577,0.4867703 V 5.2389439 H 30.356708 Z M 34.15112,2.446 h 0.327173 V 5.2389439 H 34.155109 V 4.9277301 q -0.131667,0.1675767 -0.319193,0.2593448 -0.183536,0.091768 -0.395002,0.091768 -0.402982,0 -0.678287,-0.2792944 -0.271314,-0.2832843 -0.271314,-0.7181856 0,-0.4388912 0.279294,-0.7261654 0.283285,-0.2912642 0.694246,-0.2912642 0.199496,0 0.375053,0.083788 0.179546,0.079798 0.311214,0.2314153 z m -0.674297,2.5495588 q 0.291264,0 0.48677,-0.2074759 0.199496,-0.2114657 0.199496,-0.5186895 0,-0.3112138 -0.191516,-0.5146997 -0.191516,-0.2034859 -0.47879,-0.2034859 -0.295254,0 -0.482781,0.199496 -0.187526,0.199496 -0.187526,0.5226795 0,0.3231835 0.183537,0.5226795 0.183536,0.199496 0.47081,0.199496 z m 2.350059,0.027929 q 0.191517,0 0.351113,-0.079798 0.163587,-0.083788 0.299244,-0.2513649 l 0.195506,0.1795464 q -0.163586,0.2154556 -0.383032,0.3231835 -0.219445,0.1037379 -0.49076,0.1037379 -0.434901,0 -0.714196,-0.2832843 -0.275304,-0.2872743 -0.275304,-0.7341453 0,-0.4349013 0.283284,-0.7261654 0.283285,-0.2912642 0.698236,-0.2912642 0.422932,0 0.686266,0.2753045 0.263335,0.2753045 0.263335,0.7181856 0,0.031919 -0.004,0.075808 -0.004,0.039899 -0.008,0.059849 h -1.583998 q 0.03192,0.2832843 0.219446,0.4588408 0.191516,0.1715665 0.46283,0.1715665 z m -0.03192,-1.4842502 q -0.251365,0 -0.430911,0.1635867 -0.179547,0.1635867 -0.219446,0.4388912 H 36.4134 Q 36.377491,3.8624215 36.209915,3.7028247 36.042338,3.539238 35.794963,3.539238 Z m 1.272788,-0.227425 h 0.319194 v 0.2433851 q 0.08778,-0.1276774 0.227425,-0.1915162 0.139647,-0.063839 0.331163,-0.063839 h 0.175557 v 0.3072239 h -0.179547 q -0.275304,0 -0.414951,0.1436371 -0.135657,0.1436371 -0.135657,0.4349012 V 5.2389439 H 37.06775 Z"
       id="text2"
       style="font-size:3.98992px;font-family:'IntelOne Display';-inkscape-font-specification:'IntelOne Display, Normal';text-align:center;text-anchor:middle;fill:#0054ae;fill-rule:evenodd;stroke-width:0"
       aria-label="Launch in Binder" />
  </g>
</svg>
