<svg width="992" height="432" xmlns="http://www.w3.org/2000/svg" xmlns:xlink="http://www.w3.org/1999/xlink" overflow="hidden"><g><rect x="0" y="0" width="992" height="432" fill="#FFFFFF"/><text font-family="IntelOne Display Regular,IntelOne Display Regular_MSFontService,sans-serif" font-weight="400" font-size="24" transform="translate(479.923 47)">RAW Text</text><rect x="395.5" y="59.5001" width="284" height="39" stroke="#000000" stroke-width="1.33333" stroke-miterlimit="8" fill="#FFFFFF"/><text font-family="IntelOne Display Regular,IntelOne Display Regular_MSFontService,sans-serif" font-weight="400" font-size="24" transform="translate(424.025 86)">"</text><text font-family="IntelOne Display Regular,IntelOne Display Regular_MSFontService,sans-serif" font-weight="400" font-size="24" transform="translate(432.025 86)">Tokenization</text><text font-family="IntelOne Display Regular,IntelOne Display Regular_MSFontService,sans-serif" font-weight="400" font-size="24" transform="translate(571.192 86)">basics</text><text font-family="IntelOne Display Regular,IntelOne Display Regular_MSFontService,sans-serif" font-weight="400" font-size="24" transform="translate(637.859 86)">!</text><text font-family="IntelOne Display Regular,IntelOne Display Regular_MSFontService,sans-serif" font-weight="400" font-size="24" transform="translate(642.859 86)">"</text><path d="M260.5 157.834C260.5 153.783 263.783 150.5 267.834 150.5L384.167 150.5C388.217 150.5 391.5 153.783 391.5 157.834L391.5 187.167C391.5 191.217 388.217 194.5 384.167 194.5L267.834 194.5C263.783 194.5 260.5 191.217 260.5 187.167Z" stroke="#000000" stroke-width="1.33333" stroke-miterlimit="8" fill="#B9D6E5" fill-rule="evenodd"/><text font-family="IntelOne Display Regular,IntelOne Display Regular_MSFontService,sans-serif" font-weight="400" font-size="24" transform="translate(283.926 180)">"Token"</text><path d="M404.5 157.834C404.5 153.783 407.783 150.5 411.834 150.5L528.167 150.5C532.217 150.5 535.5 153.783 535.5 157.834L535.5 187.167C535.5 191.217 532.217 194.5 528.167 194.5L411.834 194.5C407.783 194.5 404.5 191.217 404.5 187.167Z" stroke="#000000" stroke-width="1.33333" stroke-miterlimit="8" fill="#B9D6E5" fill-rule="evenodd"/><text font-family="IntelOne Display Regular,IntelOne Display Regular_MSFontService,sans-serif" font-weight="400" font-size="24" transform="translate(427.76 180)">"</text><text font-family="IntelOne Display Regular,IntelOne Display Regular_MSFontService,sans-serif" font-weight="400" font-size="24" transform="translate(435.76 180)">ization</text><text font-family="IntelOne Display Regular,IntelOne Display Regular_MSFontService,sans-serif" font-weight="400" font-size="24" transform="translate(503.26 180)">"</text><path d="M548.5 157.834C548.5 153.783 551.783 150.5 555.834 150.5L672.167 150.5C676.217 150.5 679.5 153.783 679.5 157.834L679.5 187.167C679.5 191.217 676.217 194.5 672.167 194.5L555.834 194.5C551.783 194.5 548.5 191.217 548.5 187.167Z" stroke="#000000" stroke-width="1.33333" stroke-miterlimit="8" fill="#B9D6E5" fill-rule="evenodd"/><text font-family="IntelOne Display Regular,IntelOne Display Regular_MSFontService,sans-serif" font-weight="400" font-size="24" transform="translate(569.927 180)">"</text><text font-family="IntelOne Display Regular,IntelOne Display Regular_MSFontService,sans-serif" font-weight="400" font-size="24" transform="translate(582.427 180)">basics</text><text font-family="IntelOne Display Regular,IntelOne Display Regular_MSFontService,sans-serif" font-weight="400" font-size="24" transform="translate(649.093 180)">"</text><path d="M692.5 157.834C692.5 153.783 695.783 150.5 699.834 150.5L816.167 150.5C820.217 150.5 823.5 153.783 823.5 157.834L823.5 187.167C823.5 191.217 820.217 194.5 816.167 194.5L699.834 194.5C695.783 194.5 692.5 191.217 692.5 187.167Z" stroke="#000000" stroke-width="1.33333" stroke-miterlimit="8" fill="#B9D6E5" fill-rule="evenodd"/><text font-family="IntelOne Display Regular,IntelOne Display Regular_MSFontService,sans-serif" font-weight="400" font-size="24" transform="translate(747.01 180)">"</text><text font-family="IntelOne Display Regular,IntelOne Display Regular_MSFontService,sans-serif" font-weight="400" font-size="24" transform="translate(755.01 180)">!</text><text font-family="IntelOne Display Regular,IntelOne Display Regular_MSFontService,sans-serif" font-weight="400" font-size="24" transform="translate(760.01 180)">"</text><path d="M539 98 539 124.757 535 124.757 535 98ZM543 122.757 537 134.757 531 122.757Z"/><text font-family="IntelOne Display Regular,IntelOne Display Regular_MSFontService,sans-serif" font-weight="400" font-size="24" transform="translate(849.279 182)">Tokens</text><path d="M260.5 256.834C260.5 252.783 263.783 249.5 267.834 249.5L384.167 249.5C388.217 249.5 391.5 252.783 391.5 256.834L391.5 286.167C391.5 290.217 388.217 293.5 384.167 293.5L267.834 293.5C263.783 293.5 260.5 290.217 260.5 286.167Z" stroke="#000000" stroke-width="1.33333" stroke-miterlimit="8" fill="#B9D6E5" fill-rule="evenodd"/><text font-family="IntelOne Display Regular,IntelOne Display Regular_MSFontService,sans-serif" font-weight="400" font-size="24" transform="translate(289.676 279)">30642</text><path d="M404.5 256.834C404.5 252.783 407.783 249.5 411.834 249.5L528.167 249.5C532.217 249.5 535.5 252.783 535.5 256.834L535.5 286.167C535.5 290.217 532.217 293.5 528.167 293.5L411.834 293.5C407.783 293.5 404.5 290.217 404.5 286.167Z" stroke="#000000" stroke-width="1.33333" stroke-miterlimit="8" fill="#B9D6E5" fill-rule="evenodd"/><text font-family="IntelOne Display Regular,IntelOne Display Regular_MSFontService,sans-serif" font-weight="400" font-size="24" transform="translate(444.676 279)">1634</text><path d="M548.5 256.834C548.5 252.783 551.783 249.5 555.834 249.5L672.167 249.5C676.217 249.5 679.5 252.783 679.5 256.834L679.5 286.167C679.5 290.217 676.217 293.5 672.167 293.5L555.834 293.5C551.783 293.5 548.5 290.217 548.5 286.167Z" stroke="#000000" stroke-width="1.33333" stroke-miterlimit="8" fill="#B9D6E5" fill-rule="evenodd"/><text font-family="IntelOne Display Regular,IntelOne Display Regular_MSFontService,sans-serif" font-weight="400" font-size="24" transform="translate(585.51 279)">19165</text><path d="M692.5 256.834C692.5 252.783 695.783 249.5 699.834 249.5L816.167 249.5C820.217 249.5 823.5 252.783 823.5 256.834L823.5 286.167C823.5 290.217 820.217 293.5 816.167 293.5L699.834 293.5C695.783 293.5 692.5 290.217 692.5 286.167Z" stroke="#000000" stroke-width="1.33333" stroke-miterlimit="8" fill="#B9D6E5" fill-rule="evenodd"/><text font-family="IntelOne Display Regular,IntelOne Display Regular_MSFontService,sans-serif" font-weight="400" font-size="24" transform="translate(749.843 279)">0</text><path d="M475.122 214.946 475.122 234.054 472.646 234.054 472.646 214.946ZM467.354 214.946 467.354 234.054 464.878 234.054 464.878 214.946Z" stroke="#000000" stroke-width="1.33333" stroke-miterlimit="8" fill-rule="evenodd"/><path d="M331.122 214.946 331.122 234.054 328.646 234.054 328.646 214.946ZM323.354 214.946 323.354 234.054 320.878 234.054 320.878 214.946Z" stroke="#000000" stroke-width="1.33333" stroke-miterlimit="8" fill-rule="evenodd"/><path d="M619.122 214.946 619.122 234.054 616.646 234.054 616.646 214.946ZM611.354 214.946 611.354 234.054 608.878 234.054 608.878 214.946Z" stroke="#000000" stroke-width="1.33333" stroke-miterlimit="8" fill-rule="evenodd"/><path d="M763.122 214.946 763.122 234.054 760.646 234.054 760.646 214.946ZM755.354 214.946 755.354 234.054 752.878 234.054 752.878 214.946Z" stroke="#000000" stroke-width="1.33333" stroke-miterlimit="8" fill-rule="evenodd"/><path d="M251.5 198.5C247.082 198.5 243.5 198.202 243.5 197.833L243.5 148.167C243.5 147.798 247.082 147.5 251.5 147.5" stroke="#000000" stroke-width="3" stroke-miterlimit="8" fill="none" fill-rule="evenodd"/><path d="M252.5 297.5C248.082 297.5 244.5 297.202 244.5 296.833L244.5 247.167C244.5 246.798 248.082 246.5 252.5 246.5" stroke="#000000" stroke-width="3" stroke-miterlimit="8" fill="none" fill-rule="evenodd"/><path d="M832.5 146.5C836.918 146.5 840.5 146.798 840.5 147.167L840.5 198.833C840.5 199.202 836.918 199.5 832.5 199.5" stroke="#000000" stroke-width="3" stroke-miterlimit="8" fill="none" fill-rule="evenodd"/><path d="M832.5 244.5C836.918 244.5 840.5 244.798 840.5 245.167L840.5 296.833C840.5 297.202 836.918 297.5 832.5 297.5" stroke="#000000" stroke-width="3" stroke-miterlimit="8" fill="none" fill-rule="evenodd"/><path d="M235 319C222.574 319 212.5 317.321 212.5 315.25L212.5 218.75C212.5 216.679 202.426 215 190 215 202.426 215 212.5 213.321 212.5 211.25L212.5 114.75C212.5 112.679 222.574 111 235 111" stroke="#000000" stroke-width="4" stroke-miterlimit="8" fill="none" fill-rule="evenodd"/><text font-family="IntelOne Display Regular,IntelOne Display Regular_MSFontService,sans-serif" font-weight="400" font-size="24" transform="translate(42.025 221)">Tokenization</text><path d="M541 297 541 339.825 537 339.825 537 297ZM545 337.825 539 349.825 533 337.825Z"/><rect x="397.5" y="350.5" width="284" height="39" stroke="#000000" stroke-width="1.33333" stroke-miterlimit="8" fill="#FFFFFF"/><text font-family="IntelOne Display Regular,IntelOne Display Regular_MSFontService,sans-serif" font-weight="400" font-size="24" transform="translate(425.652 377)">"</text><text font-family="IntelOne Display Regular,IntelOne Display Regular_MSFontService,sans-serif" font-weight="400" font-size="24" transform="translate(433.652 377)">Tokenization</text><text font-family="IntelOne Display Regular,IntelOne Display Regular_MSFontService,sans-serif" font-weight="400" font-size="24" transform="translate(572.819 377)">basics</text><text font-family="IntelOne Display Regular,IntelOne Display Regular_MSFontService,sans-serif" font-weight="400" font-size="24" transform="translate(639.486 377)">!</text><text font-family="IntelOne Display Regular,IntelOne Display Regular_MSFontService,sans-serif" font-weight="400" font-size="24" transform="translate(644.486 377)">"</text><path d="M235 411C222.574 411 212.5 409.321 212.5 407.25L212.5 372.75C212.5 370.679 202.426 369 190 369 202.426 369 212.5 367.321 212.5 365.25L212.5 330.75C212.5 328.679 222.574 327 235 327" stroke="#000000" stroke-width="4" stroke-miterlimit="8" fill="none" fill-rule="evenodd"/><text font-family="IntelOne Display Regular,IntelOne Display Regular_MSFontService,sans-serif" font-weight="400" font-size="24" transform="translate(22.7027 377)">Detokenization</text><text font-family="IntelOne Display Regular,IntelOne Display Regular_MSFontService,sans-serif" font-weight="400" font-size="24" transform="translate(849.279 276)">token_ids</text></g></svg>