<?xml version="1.0" encoding="UTF-8" standalone="no"?>
<!-- Created with Inkscape (http://www.inkscape.org/) -->

<svg
   width="158"
   height="32"
   viewBox="0 0 41.804166 8.4666666"
   version="1.1"
   id="svg1"
   inkscape:version="1.3 (0e150ed6c4, 2023-07-21)"
   sodipodi:docname="open_in_colab.svg"
   xmlns:inkscape="http://www.inkscape.org/namespaces/inkscape"
   xmlns:sodipodi="http://sodipodi.sourceforge.net/DTD/sodipodi-0.dtd"
   xmlns="http://www.w3.org/2000/svg"
   xmlns:svg="http://www.w3.org/2000/svg">
  <sodipodi:namedview
     id="namedview1"
     pagecolor="#ffffff"
     bordercolor="#000000"
     borderopacity="0.25"
     inkscape:showpageshadow="2"
     inkscape:pageopacity="0.0"
     inkscape:pagecheckerboard="0"
     inkscape:deskcolor="#d1d1d1"
     inkscape:document-units="mm"
     inkscape:zoom="9.0597794"
     inkscape:cx="81.458937"
     inkscape:cy="14.183568"
     inkscape:window-width="1920"
     inkscape:window-height="1129"
     inkscape:window-x="-8"
     inkscape:window-y="-8"
     inkscape:window-maximized="1"
     inkscape:current-layer="layer1"
     showgrid="false" />
  <defs
     id="defs1" />
  <g
     inkscape:label="Layer 1"
     inkscape:groupmode="layer"
     id="layer1">
    <rect
       style="fill:#ffffff;fill-opacity:1;fill-rule:evenodd;stroke:#0054ae;stroke-width:0.283116;stroke-opacity:1;-inkscape-stroke:none"
       id="rect1"
       width="41.521049"
       height="8.1835508"
       x="0.14155985"
       y="0.1415585" />
    <g
       id="g1"
       transform="matrix(0.90500805,0,0,0.88888964,-81.656035,-100.99743)"
       style="stroke-width:1.11494">
      <path
         d="m 100.35977,116.15209 c -1.232963,0 -2.232426,0.99946 -2.232426,2.23242 0,1.23296 0.999463,2.23242 2.232426,2.23242 1.23295,0 2.23242,-0.99946 2.23242,-2.23242 0,-1.23296 -0.99947,-2.23242 -2.23242,-2.23242 z m 0,3.30729 c -0.593677,0 -1.074874,-0.48123 -1.074874,-1.07487 0,-0.59367 0.481197,-1.07487 1.074874,-1.07487 0.59364,0 1.07487,0.4812 1.07487,1.07487 0,0.59364 -0.48123,1.07487 -1.07487,1.07487 z"
         fill="#ffb300"
         id="path1"
         style="stroke-width:0.294994" />
      <path
         d="m 97.98513,119.13709 v -5e-4 c -0.19513,0.19909 -0.466672,0.32279 -0.767292,0.32279 -0.593658,0 -1.074869,-0.48123 -1.074869,-1.07487 0,-0.59367 0.481211,-1.07487 1.074869,-1.07487 0.302631,0 0.575628,0.12552 0.770943,0.32676 l 0.620104,-0.99616 c -0.381661,-0.30477 -0.864684,-0.48815 -1.391047,-0.48815 -1.232958,0 -2.232421,0.99946 -2.232421,2.23242 0,1.23296 0.999463,2.23242 2.232421,2.23242 0.523214,0 1.003274,-0.1814 1.38393,-0.48271 z"
         fill="#ffb300"
         id="path2"
         style="stroke-width:0.294994" />
      <path
         d="m 96.142969,118.38451 c 0,-0.29552 0.119393,-0.56306 0.312372,-0.75737 l -0.802844,-0.8331 c -0.411427,0.40482 -0.66708,0.96753 -0.66708,1.59047 0,0.61994 0.253007,1.1807 0.661127,1.5852 l 0.815909,-0.82087 c -0.197115,-0.19482 -0.319484,-0.46519 -0.319484,-0.76433 z"
         fill="#f57c00"
         id="path3"
         style="stroke-width:0.294994" />
      <path
         d="m 101.12539,117.6306 c 0.191,0.19397 0.30925,0.46003 0.30925,0.75391 0,0.59364 -0.48123,1.07487 -1.07487,1.07487 -0.30197,0 -0.574494,-0.12486 -0.769783,-0.32547 l -0.826664,0.80947 c 0.405474,0.41508 0.970359,0.67352 1.596447,0.67352 1.23295,0 2.23242,-0.99943 2.23242,-2.23239 0,-0.60921 -0.24458,-1.1607 -0.64014,-1.56354 z"
         fill="#f57c00"
         id="path4"
         style="stroke-width:0.294994" />
    </g>
    <path
       d="m 13.071001,3.9101498 q 0,-0.6184376 0.410961,-1.0413691 0.410962,-0.4229315 1.01344,-0.4229315 0.606468,0 1.00945,0.4189416 0.406972,0.4149517 0.406972,1.0373792 0,0.6224275 -0.410962,1.045359 -0.406972,0.4189416 -1.00945,0.4189416 -0.606468,0 -1.01344,-0.4149517 -0.406971,-0.4189416 -0.406971,-1.0413691 z m 0.351113,-0.00798 q 0,0.4907601 0.307223,0.8259134 0.311214,0.3311633 0.766065,0.3311633 0.454851,0 0.758085,-0.3271734 0.307224,-0.3311633 0.307224,-0.8219235 0,-0.4907601 -0.307224,-0.8219235 -0.307224,-0.3351533 -0.762075,-0.3351533 -0.458841,0 -0.766065,0.3311634 -0.303233,0.3271734 -0.303233,0.8179336 z m 3.171983,2.1186474 H 16.270914 V 3.3755005 h 0.319193 v 0.3112138 q 0.127678,-0.1675766 0.315204,-0.2593448 0.187526,-0.095758 0.398992,-0.095758 0.406972,0 0.678286,0.2832843 0.271315,0.2792944 0.271315,0.7181856 0,0.4428811 -0.283285,0.7301554 -0.279294,0.2832843 -0.690256,0.2832843 -0.195506,0 -0.379042,-0.079798 -0.179546,-0.083788 -0.307224,-0.2354053 z m 0.674297,-2.4019317 q -0.291265,0 -0.490761,0.2114657 -0.195506,0.2074758 -0.195506,0.5186896 0,0.3072238 0.191517,0.5107097 0.195506,0.203486 0.48278,0.203486 0.295254,0 0.47879,-0.1955061 0.187526,-0.199496 0.187526,-0.5266694 0,-0.3231836 -0.183536,-0.5226795 -0.179546,-0.199496 -0.47081,-0.199496 z m 2.250312,1.4682905 q 0.191516,0 0.351113,-0.079798 0.163586,-0.083788 0.299244,-0.251365 l 0.195506,0.1795464 q -0.163587,0.2154557 -0.383033,0.3231835 -0.219445,0.103738 -0.49076,0.103738 -0.434901,0 -0.714195,-0.2832844 -0.275305,-0.2872742 -0.275305,-0.7341452 0,-0.4349013 0.283284,-0.7261654 0.283285,-0.2912642 0.698236,-0.2912642 0.422932,0 0.686267,0.2753045 0.263334,0.2753045 0.263334,0.7181856 0,0.031919 -0.004,0.075808 -0.004,0.039899 -0.008,0.059849 h -1.583999 q 0.03192,0.2832843 0.219446,0.4588408 0.191516,0.1715666 0.462831,0.1715666 z m -0.03192,-1.48425 q -0.251365,0 -0.430911,0.1635867 -0.179546,0.1635867 -0.219446,0.4388912 h 1.268795 Q 20.069315,3.9261095 19.901738,3.7665127 19.734161,3.602926 19.486786,3.602926 Z m 1.272787,-0.2274255 h 0.319194 v 0.299244 q 0.115708,-0.1675766 0.291264,-0.2553548 0.179546,-0.091768 0.398992,-0.091768 0.383032,0 0.598488,0.247375 0.215456,0.2473751 0.215456,0.6782864 v 1.049349 H 22.259783 V 4.2732325 q 0,-0.3032339 -0.151617,-0.4787904 -0.147627,-0.1755564 -0.414952,-0.1755564 -0.275304,0 -0.442881,0.1875262 -0.167576,0.1875262 -0.167576,0.4867702 v 1.0094498 h -0.323184 z m 2.980466,-0.646367 h 0.359093 v 0.3551029 h -0.359093 z m 0.01596,2.5734984 V 3.3755005 h 0.327174 V 5.3026319 Z M 24.54201,3.3755005 h 0.319193 v 0.299244 q 0.115708,-0.1675766 0.291264,-0.2553548 0.179547,-0.091768 0.398992,-0.091768 0.383033,0 0.598488,0.247375 0.215456,0.2473751 0.215456,0.6782864 v 1.049349 H 26.042219 V 4.2732325 q 0,-0.3032339 -0.151616,-0.4787904 -0.147628,-0.1755564 -0.414952,-0.1755564 -0.275305,0 -0.442881,0.1875262 -0.167577,0.1875262 -0.167577,0.4867702 V 5.3026319 H 24.54201 Z M 27.7898,3.90217 q 0,0.49874 0.299244,0.8299033 0.299244,0.3271734 0.750105,0.3271734 0.303234,0 0.530659,-0.1396472 0.231415,-0.1396472 0.395002,-0.4189415 l 0.263335,0.1516169 q -0.179547,0.3431331 -0.49076,0.5306594 -0.307224,0.1835363 -0.706216,0.1835363 -0.606468,0 -1.00147,-0.4109618 -0.391012,-0.4109617 -0.391012,-1.045359 0,-0.6224275 0.406972,-1.0413691 0.410961,-0.4229315 1.021419,-0.4229315 0.387022,0 0.682276,0.1835363 0.299244,0.1795464 0.466821,0.5146997 L 29.740871,3.3076719 Q 29.585264,3.0243876 29.369808,2.8887303 29.154352,2.753073 28.859098,2.753073 q -0.45884,0 -0.766064,0.3271735 Q 27.7898,3.4074199 27.7898,3.90217 Z m 4.5126,0.4388912 q 0,0.4349012 -0.291264,0.7301553 -0.291264,0.2912642 -0.718186,0.2912642 -0.426921,0 -0.714195,-0.2912642 -0.283285,-0.2912642 -0.283285,-0.7261654 0,-0.4349013 0.291264,-0.7261654 0.291265,-0.2952541 0.718186,-0.2952541 0.426922,0 0.710206,0.2912641 0.287274,0.2912642 0.287274,0.7261655 z m -1.675766,0.00399 q 0,0.3112137 0.191516,0.5226795 0.195506,0.2114657 0.48278,0.2114657 0.283284,0 0.474801,-0.2114657 0.195506,-0.2114658 0.195506,-0.5266694 0,-0.3072239 -0.195506,-0.5186896 Q 31.580225,3.606916 31.29694,3.606916 q -0.283284,0 -0.47879,0.2114658 -0.191516,0.2114657 -0.191516,0.5266694 z M 32.673465,2.509688 h 0.327173 v 2.792944 h -0.327173 z m 2.441828,2.792944 H 34.800089 V 4.9874282 q -0.115708,0.1675766 -0.315204,0.2633347 -0.195506,0.091768 -0.422931,0.091768 -0.319194,0 -0.51869,-0.1595968 -0.199496,-0.1635868 -0.199496,-0.4269215 0,-0.2912641 0.223436,-0.4388912 0.223435,-0.1516169 0.662326,-0.1516169 h 0.566569 q -0.004,-0.2713146 -0.143637,-0.4189416 -0.135657,-0.147627 -0.391012,-0.147627 -0.151617,0 -0.299244,0.063839 -0.147627,0.063839 -0.291264,0.1955061 L 33.499375,3.6428252 q 0.167577,-0.1595968 0.367073,-0.2393952 0.199496,-0.083788 0.426921,-0.083788 0.387022,0 0.602478,0.2314153 0.219446,0.2274255 0.219446,0.6304074 z M 34.796099,4.4168696 H 34.23352 q -0.291264,0 -0.430911,0.079798 -0.139647,0.079798 -0.139647,0.251365 0,0.1436371 0.119697,0.2393952 0.123688,0.095758 0.315204,0.095758 0.287274,0 0.48278,-0.1835364 0.199496,-0.1875262 0.215456,-0.4827798 z m 1.037376,0.8857623 h -0.319193 v -2.792944 h 0.323183 v 1.1650566 q 0.127677,-0.1635867 0.311214,-0.2513649 0.187526,-0.091768 0.395002,-0.091768 0.406972,0 0.678286,0.2832843 0.275305,0.2792944 0.275305,0.7181856 0,0.4428811 -0.279295,0.7301554 -0.279294,0.2832843 -0.690256,0.2832843 -0.203486,0 -0.387022,-0.087778 -0.179546,-0.087778 -0.307224,-0.2433851 z m 0.678286,-1.6837462 q -0.287274,0 -0.48677,0.2114657 -0.199496,0.2074758 -0.199496,0.5186896 0,0.3032339 0.195506,0.5107097 0.195506,0.203486 0.478791,0.203486 0.295254,0 0.47879,-0.1955061 0.187526,-0.199496 0.187526,-0.5266694 0,-0.3231836 -0.183536,-0.5226795 -0.179546,-0.199496 -0.470811,-0.199496 z"
       id="text2-1"
       style="font-size:3.98992px;font-family:'IntelOne Display';-inkscape-font-specification:'IntelOne Display, Normal';text-align:center;text-anchor:middle;fill:#0054ae;fill-rule:evenodd;stroke-width:0"
       aria-label="Open in Colab" />
  </g>
</svg>
