<?xml version="1.0" encoding="UTF-8" standalone="no"?>
<!-- Created with Inkscape (http://www.inkscape.org/) -->

<svg
   width="156"
   height="32"
   viewBox="0 0 41.274999 8.4666666"
   version="1.1"
   id="svg1"
   inkscape:version="1.3 (0e150ed6c4, 2023-07-21)"
   sodipodi:docname="view_on_github.svg"
   xmlns:inkscape="http://www.inkscape.org/namespaces/inkscape"
   xmlns:sodipodi="http://sodipodi.sourceforge.net/DTD/sodipodi-0.dtd"
   xmlns="http://www.w3.org/2000/svg"
   xmlns:svg="http://www.w3.org/2000/svg">
  <sodipodi:namedview
     id="namedview1"
     pagecolor="#ffffff"
     bordercolor="#000000"
     borderopacity="0.25"
     inkscape:showpageshadow="2"
     inkscape:pageopacity="0.0"
     inkscape:pagecheckerboard="0"
     inkscape:deskcolor="#d1d1d1"
     inkscape:document-units="mm"
     inkscape:zoom="3.1890022"
     inkscape:cx="45.782345"
     inkscape:cy="84.82277"
     inkscape:window-width="1920"
     inkscape:window-height="1129"
     inkscape:window-x="-8"
     inkscape:window-y="-8"
     inkscape:window-maximized="1"
     inkscape:current-layer="layer1" />
  <defs
     id="defs1" />
  <g
     inkscape:label="Layer 1"
     inkscape:groupmode="layer"
     id="layer1">
    <rect
       style="fill:#0054ae;fill-opacity:1;fill-rule:evenodd;stroke:#0054ae;stroke-width:0.283116;stroke-opacity:1;-inkscape-stroke:none"
       id="rect1"
       width="40.991882"
       height="8.1835499"
       x="0.1415585"
       y="0.1415585" />
    <path
       d="M 6.2502846,2.2631228 C 5.3086994,2.3654691 4.5513374,3.1228313 4.448991,4.0439489 4.3466447,5.0060034 4.8993144,5.8657117 5.7385534,6.1932199 5.7999614,6.2136881 5.8613693,6.1727517 5.8613693,6.0908734 V 5.7633647 c 0,0 -0.081875,0.020471 -0.1842237,0.020471 -0.2865693,0 -0.4093848,-0.2456309 -0.4298541,-0.3889156 -0.020469,-0.081876 -0.06141,-0.1432848 -0.1228154,-0.2046927 -0.06141,-0.020467 -0.081875,-0.020467 -0.081875,-0.040936 0,-0.040937 0.061411,-0.040937 0.081875,-0.040937 0.1228154,0 0.225162,0.143285 0.2661002,0.2046925 0.1023474,0.1637544 0.2251618,0.2046922 0.2865693,0.2046922 0.081875,0 0.1432849,-0.020468 0.1842237,-0.04094 C 5.8818383,5.3335115 5.9432462,5.1902266 6.0660614,5.1083498 5.5952684,5.0060033 5.2472912,4.7399031 5.2472912,4.2895797 c 0,-0.2251616 0.1023476,-0.4503232 0.245631,-0.6140773 -0.020472,-0.040938 -0.040936,-0.1432845 -0.040936,-0.2865711 0,-0.081874 0,-0.184223 0.040936,-0.2661003 0,-0.040936 0.040937,-0.061412 0.061411,-0.061412 h 0.020473 c 0.1023474,0.020469 0.3070387,0.081875 0.4912617,0.2661002 0.1228157,-0.040936 0.2661003,-0.061412 0.4093846,-0.061412 0.1432845,0 0.2865697,0.020474 0.4093847,0.061412 C 7.0690561,3.1432996 7.2942179,3.0818917 7.3965635,3.0614225 h 0.020469 c 0.04094,0 0.061412,0.020469 0.081875,0.061412 0,0.081875 0,0.1842233 0,0.2661002 0,0.1637554 -0.020468,0.2456325 -0.04094,0.2865709 0.1432845,0.163754 0.2456312,0.3684466 0.2456312,0.6140774 0,0.4503232 -0.3479777,0.7164237 -0.8187704,0.8187698 0.1228159,0.1023474 0.204693,0.2865696 0.204693,0.4707926 V 6.111346 c 0,0.061412 0.061412,0.1228157 0.1432847,0.1023474 0.7573615,-0.3070396 1.2895621,-1.0439325 1.2895621,-1.903641 0,-1.2281563 -1.0439318,-2.190211 -2.2720866,-2.0469262 z"
       fill="inherit"
       id="path1"
       style="fill:#ffffff;fill-opacity:1;stroke-width:0.264583" />
    <path
       style="font-size:3.98992px;font-family:'IntelOne Display';-inkscape-font-specification:'IntelOne Display, Normal';text-align:center;text-anchor:middle;fill:#ffffff;fill-rule:evenodd;stroke-width:0"
       d="M 11.616876,5.3027832 10.380001,2.5098393 h 0.375052 l 1.041369,2.3540527 1.0294,-2.3540527 h 0.367072 l -1.236875,2.7929439 z m 1.835365,-2.5734983 h 0.359092 V 3.0843877 H 13.452241 Z M 13.4682,5.3027832 V 3.3756519 h 0.327174 v 1.9271313 z m 1.715663,-0.2154557 q 0.191516,0 0.351113,-0.079798 0.163587,-0.083788 0.299244,-0.2513649 l 0.195506,0.1795464 q -0.163586,0.2154556 -0.383032,0.3231835 -0.219446,0.1037379 -0.49076,0.1037379 -0.434901,0 -0.714196,-0.2832843 -0.275304,-0.2872743 -0.275304,-0.7341453 0,-0.4349013 0.283284,-0.7261654 0.283284,-0.2912642 0.698236,-0.2912642 0.422931,0 0.686266,0.2753045 0.263335,0.2753045 0.263335,0.7181856 0,0.031919 -0.004,0.075808 -0.004,0.039899 -0.008,0.059849 h -1.583998 q 0.03192,0.2832843 0.219446,0.4588408 0.191516,0.1715665 0.46283,0.1715665 z m -0.03192,-1.4842502 q -0.251365,0 -0.430911,0.1635867 -0.179547,0.1635867 -0.219446,0.4388912 H 15.77038 Q 15.734472,3.9262608 15.566896,3.766664 15.399319,3.6030773 15.151944,3.6030773 Z M 18.974287,3.3756519 18.487516,5.3027832 H 18.172313 L 17.633674,3.8225229 17.099024,5.3027832 H 16.78781 L 16.30104,3.3756519 h 0.327174 l 0.343133,1.4722804 0.522679,-1.4722804 h 0.287275 l 0.518689,1.4722804 0.347123,-1.4722804 z m 2.980467,0.9655606 q 0,0.4349013 -0.291264,0.7301553 -0.291264,0.2912642 -0.718186,0.2912642 -0.426921,0 -0.714195,-0.2912642 -0.283285,-0.2912641 -0.283285,-0.7261654 0,-0.4349013 0.291264,-0.7261654 0.291265,-0.2952541 0.718186,-0.2952541 0.426921,0 0.710206,0.2912642 0.287274,0.2912641 0.287274,0.7261654 z m -1.675766,0.00399 q 0,0.3112138 0.191516,0.5226795 0.195506,0.2114658 0.48278,0.2114658 0.283284,0 0.474801,-0.2114658 0.195506,-0.2114657 0.195506,-0.5266694 0,-0.3072238 -0.195506,-0.5186896 -0.195507,-0.2154557 -0.478791,-0.2154557 -0.283284,0 -0.47879,0.2114658 -0.191516,0.2114657 -0.191516,0.5266694 z M 22.28991,3.3756519 h 0.319194 v 0.299244 q 0.115708,-0.1675767 0.291264,-0.2553549 0.179546,-0.091768 0.398992,-0.091768 0.383032,0 0.598488,0.2473751 0.215456,0.247375 0.215456,0.6782864 V 5.3027832 H 23.79012 V 4.2733839 q 0,-0.303234 -0.151617,-0.4787904 -0.147627,-0.1755565 -0.414951,-0.1755565 -0.275305,0 -0.442882,0.1875262 -0.167576,0.1875263 -0.167576,0.4867703 V 5.3027832 H 22.28991 Z m 4.360977,-0.6224275 q -0.4748,0 -0.793994,0.3311633 -0.319193,0.3271735 -0.319193,0.8179336 0,0.49874 0.311213,0.8299033 0.311214,0.3271735 0.770055,0.3271735 0.434901,0 0.706216,-0.2473751 0.271314,-0.2513649 0.303234,-0.6782863 H 26.563109 V 3.8384826 h 1.384502 q 0.004,0.039899 0.008,0.087778 0.004,0.043889 0.004,0.083788 0,0.6104578 -0.375053,0.9855103 -0.371062,0.3710625 -0.98152,0.3710625 -0.610458,0 -1.013439,-0.4149517 -0.402982,-0.4149516 -0.402982,-1.0413691 0,-0.6264174 0.418941,-1.045359 Q 26.02849,2.446 26.654907,2.446 q 0.375053,0 0.682276,0.1715666 0.311214,0.1675766 0.494751,0.4748005 L 27.576549,3.2759039 Q 27.408972,3.0165591 27.173567,2.8848917 26.942151,2.7532244 26.650887,2.7532244 Z m 1.683746,-0.02394 h 0.359092 v 0.3551028 h -0.359092 z m 0.01596,2.5734983 V 3.3756519 h 0.327174 V 5.3027832 Z M 29.244331,4.7880835 V 3.6629261 H 28.980996 V 3.3756519 h 0.263335 V 2.7851437 h 0.323184 v 0.5905082 h 0.446871 v 0.2872742 h -0.446871 v 1.097228 q 0,0.1276774 0.05586,0.1915161 0.05985,0.059849 0.179546,0.059849 h 0.211466 v 0.2912642 h -0.259345 q -0.267325,0 -0.391012,-0.1236875 -0.119698,-0.1236875 -0.119698,-0.3910122 z m 1.145107,0.5146997 V 2.5098393 h 0.343134 v 1.2288953 h 1.747584 V 2.5098393 H 32.82329 V 5.3027832 H 32.480156 V 4.0499483 h -1.747584 v 1.2528349 z m 4.712093,0 H 34.778347 V 5.0075291 q -0.115707,0.1675767 -0.291264,0.2553549 -0.175556,0.083788 -0.398992,0.083788 -0.379042,0 -0.598488,-0.247375 Q 33.274148,4.8519222 33.274148,4.4250008 V 3.3756519 h 0.327173 v 1.0293993 q 0,0.3032339 0.147627,0.4787904 0.151617,0.1755565 0.418942,0.1755565 0.271314,0 0.438891,-0.1875263 0.167576,-0.1875262 0.167576,-0.4867702 V 3.3756519 h 0.327174 z m 0.738131,0 H 35.520469 V 2.5098393 h 0.323183 v 1.1650566 q 0.127678,-0.1635867 0.311214,-0.251365 0.187526,-0.091768 0.395002,-0.091768 0.406972,0 0.678286,0.2832843 0.275305,0.2792944 0.275305,0.7181856 0,0.4428811 -0.279294,0.7301553 -0.279295,0.2832843 -0.690257,0.2832843 -0.203486,0 -0.387022,-0.087778 Q 35.96734,5.1711164 35.839662,5.0155093 Z M 36.517949,3.619037 q -0.287275,0 -0.486771,0.2114657 -0.199496,0.2074759 -0.199496,0.5186896 0,0.3032339 0.195507,0.5107098 0.195506,0.2034859 0.47879,0.2034859 0.295254,0 0.47879,-0.1955061 0.187527,-0.199496 0.187527,-0.5266694 0,-0.3231835 -0.183537,-0.5226795 -0.179546,-0.199496 -0.47081,-0.199496 z"
       id="text2-0"
       aria-label="View on GitHub" />
  </g>
</svg>
